<svg width="43" height="42" viewBox="0 0 43 42" fill="none" xmlns="http://www.w3.org/2000/svg">
<path fill-rule="evenodd" clip-rule="evenodd" d="M21.4068 3.15266C11.3894 3.18575 3.28113 11.1942 3.30193 20.9549C3.32274 30.7435 11.4834 38.7089 21.4999 38.6936C31.4969 38.6783 39.6394 30.6945 39.6335 20.9133C39.6143 11.0305 31.3788 3.11973 21.4068 3.15266ZM42.9332 20.9291C42.9748 32.3739 33.4949 41.9836 21.4893 42C9.65006 42.0163 -0.00101074 32.6227 7.93953e-08 21C0.000926665 9.38205 9.64425 0.0113064 21.4676 2.17226e-09C33.2718 -0.000165054 42.8912 9.4059 42.9332 20.9291Z" fill="black"/>
<path fill-rule="evenodd" clip-rule="evenodd" d="M17.7334 15.4722C17.7428 16.0337 17.9001 16.5535 18.1688 17.0494C19.0705 18.7138 19.9685 20.3801 20.8683 22.0455C21.9383 24.0259 23.0097 26.0056 24.0786 27.9866C24.5581 28.8752 25.2968 29.4695 26.3163 29.7404C28.4394 30.3047 30.5764 28.9134 30.7842 26.8414C30.852 26.1656 30.6996 25.5383 30.3745 24.9391C29.5775 23.4701 28.7844 21.9991 27.9902 20.5287C26.823 18.3681 25.6532 16.2089 24.4907 14.046C24.069 13.2615 23.4465 12.6876 22.5754 12.3658C20.4792 11.5915 18.166 12.8296 17.799 14.9213C17.7671 15.1034 17.7548 15.2885 17.7334 15.4722Z" fill="black"/>
<path fill-rule="evenodd" clip-rule="evenodd" d="M12.1333 25.1967C12.1328 27.2559 13.8183 28.9392 15.8747 28.9333C17.9219 28.9275 19.599 27.248 19.6 25.2027C19.6009 23.1461 17.9145 21.4628 15.8567 21.4667C13.8092 21.4704 12.1338 23.149 12.1333 25.1967Z" fill="black"/>
</svg>
