<svg width="476" height="46" viewBox="0 0 476 46" fill="none" xmlns="http://www.w3.org/2000/svg">
<g clip-path="url(#clip0_3211_4784)">
<path d="M200.431 43.0974L192.222 31.0312C192.051 30.7868 191.775 30.6413 191.474 30.6413L185.37 30.6881C185.074 30.6881 184.83 30.9272 184.83 31.2287L184.913 42.38C184.918 43.2066 184.258 43.8772 183.431 43.8824L177.359 43.9292C176.538 43.9344 175.862 43.2742 175.857 42.4476L175.571 4.35654C175.566 3.46756 176.278 2.73974 177.167 2.72935L194.39 2.59938C199.298 2.56299 203.119 3.7327 205.864 6.10331C208.609 8.47393 209.997 11.8011 210.028 16.0797V16.194C210.054 19.5316 209.264 22.2505 207.652 24.3664C206.165 26.3055 204.257 27.7768 201.923 28.7801C201.606 28.9153 201.486 29.3 201.684 29.5807L209.862 41.3454C210.548 42.328 209.846 43.6797 208.65 43.6901L201.684 43.742C201.185 43.742 200.717 43.5029 200.436 43.0922L200.431 43.0974ZM200.852 16.6203C200.837 14.6552 200.202 13.1944 198.939 12.2222C197.676 11.25 195.929 10.7718 193.694 10.7926L185.578 10.8549C185.09 10.8549 184.684 11.2604 184.689 11.7595L184.762 21.7983C184.762 22.2869 185.173 22.6924 185.662 22.6872L193.948 22.6248C196.184 22.6093 197.899 22.0634 199.09 20.9924C200.275 19.9215 200.863 18.5075 200.852 16.7399V16.6255V16.6203ZM113.379 42.9155L113.275 28.7645C113.275 28.2759 112.869 27.8704 112.37 27.8756L97.4445 27.9847C96.9558 27.9847 96.5503 28.3954 96.5555 28.8893L96.6594 43.0402C96.6646 43.8668 96.0044 44.5375 95.1778 44.5427L89.1005 44.5894C88.2791 44.5946 87.6033 43.9344 87.5981 43.1078L87.3121 4.89721C87.3069 4.07062 87.9724 3.39478 88.7938 3.38958L94.8711 3.34279C95.6977 3.3376 96.3683 4.00303 96.3735 4.82963L96.4775 18.7414C96.4775 19.2353 96.8882 19.6356 97.3821 19.6304L112.308 19.5212C112.801 19.5212 113.202 19.1157 113.197 18.6166L113.093 4.70486C113.087 3.87826 113.753 3.20243 114.574 3.19723L120.646 3.15044C121.473 3.14524 122.144 3.81068 122.149 4.63728L122.435 42.8479C122.44 43.6745 121.78 44.3451 120.953 44.3503L114.881 44.3971C114.06 44.4023 113.384 43.7421 113.379 42.9155ZM65.254 12.8201L65.4827 43.269C65.4879 44.0956 64.8225 44.7662 64.0011 44.7714L57.929 44.8182C57.1024 44.8234 56.4266 44.1631 56.4214 43.3365L56.1926 12.8876C56.1926 12.3886 55.7819 11.9935 55.288 11.9987L45.1401 12.0766C44.3135 12.0818 43.6377 11.4164 43.6325 10.595L43.5909 5.22473C43.5857 4.40333 44.2512 3.7223 45.0777 3.7171L76.2233 3.48316C77.0499 3.47796 77.7205 4.1486 77.7257 4.96999L77.7673 10.3403C77.7725 11.1617 77.1123 11.8375 76.2857 11.8427L66.143 11.9207C65.6491 11.9207 65.2488 12.3262 65.254 12.8253V12.8201ZM33.0531 44.0748L29.8403 36.3443C29.6999 36.0064 29.3672 35.788 29.0033 35.7932L12.7885 35.9128C12.4246 35.9128 12.0971 36.1363 11.9619 36.4742L8.85827 44.2515C8.63472 44.813 8.08885 45.1873 7.48061 45.1925L1.50728 45.2393C0.436339 45.2497 -0.291482 44.1579 0.119217 43.165L14.9824 7.49137C15.9597 5.14675 18.2368 3.62353 20.7685 3.60273C23.3003 3.58194 25.6033 5.07917 26.6067 7.40299L42.0157 42.8531C42.442 43.8356 41.7246 44.9378 40.6536 44.943L34.4412 44.9897C33.8381 44.9897 33.287 44.6258 33.0479 44.0696L33.0531 44.0748ZM19.9211 16.5216L15.8557 26.6487C15.6218 27.2413 16.0585 27.886 16.6979 27.8808L24.9691 27.8184C25.6033 27.8184 26.0348 27.1633 25.7905 26.5759L21.5743 16.5112C21.2676 15.7677 20.2123 15.7781 19.9159 16.5216H19.9211ZM143.011 27.1581L143.058 33.7189C143.068 34.8678 144.009 35.8036 145.164 35.7932L163.936 35.6528C164.757 35.6476 165.428 36.3131 165.439 37.1293L165.475 42.2032C165.48 43.0246 164.82 43.7005 163.998 43.7057L138.223 43.898C136.003 43.9136 134.184 42.1252 134.163 39.895L133.913 6.77915C133.898 4.5489 135.691 2.73454 137.911 2.71895L162.792 2.53179C163.952 2.5214 164.893 3.45197 164.903 4.60608L164.934 8.48433C164.945 9.63844 164.014 10.5794 162.855 10.5898L144.982 10.725C143.827 10.7354 142.897 11.6763 142.907 12.8305L142.954 19.0949L143.016 27.1529L143.011 27.1581ZM150.695 19.6356L157.282 19.5888C159.481 19.5732 161.274 21.3408 161.29 23.545V23.5866C161.306 25.7909 159.538 27.5844 157.339 27.6L150.752 27.6468C148.553 27.6624 146.749 25.8948 146.734 23.6958V23.6542C146.718 21.4499 148.491 19.6564 150.69 19.6408L150.695 19.6356Z" fill="black"/>
<path d="M251.748 37.6076C251.051 39.0424 250.095 40.2693 248.873 41.2831C247.651 42.302 246.19 43.0974 244.48 43.6745C242.775 44.2515 240.893 44.5478 238.84 44.5634C235.455 44.5894 232.403 44.0488 229.679 42.9414C226.95 41.8341 224.314 40.1653 221.762 37.9247L223.8 35.5541C224.975 36.6354 226.139 37.5608 227.293 38.3354C228.447 39.11 229.633 39.7494 230.839 40.2433C232.05 40.7372 233.324 41.1115 234.649 41.361C235.98 41.6158 237.431 41.7301 239.001 41.7197C240.571 41.7093 242.021 41.4858 243.342 41.0543C244.667 40.6228 245.79 40.0302 246.71 39.2763C247.631 38.5225 248.348 37.6335 248.868 36.599C249.383 35.5697 249.637 34.4519 249.627 33.2406V33.1211C249.616 31.9929 249.44 30.9896 249.091 30.1058C248.743 29.222 248.114 28.4214 247.199 27.704C246.289 26.9866 245.068 26.3419 243.529 25.7701C241.995 25.1982 240.014 24.6783 237.597 24.2105C235.055 23.7062 232.877 23.1083 231.062 22.4169C229.243 21.7255 227.761 20.9093 226.602 19.9735C225.448 19.0377 224.6 17.946 224.07 16.7035C223.534 15.461 223.264 14.0314 223.254 12.4198V12.3002C223.243 10.7302 223.571 9.26933 224.247 7.91246C224.923 6.5608 225.858 5.37549 227.059 4.36174C228.26 3.34799 229.685 2.55258 231.333 1.97553C232.981 1.39847 234.79 1.10734 236.76 1.09174C239.822 1.07095 242.468 1.47125 244.709 2.29785C246.95 3.12964 249.143 4.39813 251.29 6.11371L249.315 8.60389C247.287 6.88832 245.255 5.67182 243.217 4.96479C241.179 4.25257 238.99 3.90945 236.656 3.92505C235.086 3.93544 233.667 4.15899 232.403 4.59048C231.14 5.02198 230.054 5.60423 229.154 6.33725C228.255 7.07027 227.569 7.92286 227.09 8.88982C226.617 9.86198 226.378 10.8861 226.389 11.9727V12.0922C226.399 13.2204 226.576 14.2341 226.924 15.1387C227.272 16.0433 227.901 16.8647 228.816 17.6029C229.726 18.3411 230.989 19.0065 232.606 19.5992C234.218 20.1918 236.277 20.7377 238.777 21.242C243.695 22.2089 247.251 23.6074 249.44 25.4218C251.628 27.2361 252.73 29.6951 252.756 32.7935V32.9131C252.772 34.6027 252.429 36.1675 251.738 37.6024L251.748 37.6076Z" fill="black"/>
<path d="M276.832 4.23176L277.128 43.6693L273.988 43.6952L273.692 4.25776L258.953 4.36693L258.933 1.52843L291.544 1.28409L291.565 4.12259L276.827 4.23176H276.832Z" fill="black"/>
<path d="M331.304 43.2638L325.84 31.4679L300.896 31.655L295.609 43.5341L292.35 43.5601L311.715 0.8318L314.735 0.811005L334.74 43.243L331.298 43.269L331.304 43.2638ZM313.196 4.26296L302.206 28.8061L324.493 28.6398L313.196 4.26296Z" fill="black"/>
<path d="M373.7 39.2971C372.52 40.2121 371.257 40.9971 369.915 41.6522C368.574 42.3072 367.113 42.8219 365.548 43.1962C363.984 43.5705 362.268 43.7628 360.417 43.7784C357.397 43.7992 354.595 43.2586 352.011 42.1512C349.427 41.0439 347.192 39.5207 345.305 37.5816C343.417 35.6424 341.941 33.3498 340.875 30.6985C339.809 28.0471 339.264 25.2138 339.243 22.1933V22.0738C339.222 19.0949 339.731 16.272 340.782 13.6051C341.827 10.9381 343.282 8.60389 345.138 6.59719C346.994 4.59048 349.209 3.00487 351.777 1.83516C354.345 0.670648 357.158 0.0727953 360.22 0.0520005C362.112 0.0364043 363.822 0.187167 365.356 0.49909C366.89 0.811014 368.309 1.2633 369.624 1.85596C370.939 2.44861 372.171 3.15564 373.326 3.97184C374.48 4.78803 375.603 5.69781 376.694 6.69596L374.48 9.0094C373.544 8.13081 372.572 7.31461 371.563 6.5556C370.549 5.79659 369.468 5.15194 368.319 4.61648C367.17 4.08101 365.917 3.65991 364.566 3.34799C363.214 3.03607 361.753 2.8853 360.183 2.8957C357.646 2.9165 355.296 3.41557 353.129 4.39813C350.961 5.38069 349.089 6.73236 347.514 8.45833C345.934 10.1843 344.701 12.1962 343.812 14.494C342.924 16.7971 342.492 19.2769 342.508 21.9334V22.053C342.528 24.7095 343.007 27.1945 343.953 29.5028C344.894 31.811 346.168 33.8177 347.774 35.5177C349.375 37.2176 351.267 38.5537 353.451 39.5207C355.629 40.4928 357.989 40.9659 360.526 40.9503C363.588 40.9295 366.24 40.3421 368.486 39.1984C370.731 38.0546 372.915 36.4067 375.031 34.2596L377.157 36.2975C376.039 37.3944 374.885 38.3978 373.705 39.3127L373.7 39.2971Z" fill="black"/>
<path d="M420.187 42.6035L402.636 21.3564L392.207 32.0657L392.285 42.8167L389.145 42.8427L388.828 0.566679L391.968 0.540685L392.176 28.3226L418.908 0.332737L423.197 0.301544L404.856 19.1001L424.299 42.5723L420.192 42.6035H420.187Z" fill="black"/>
<path d="M445.926 36.4222L449.035 32.9651C452.736 36.4898 456.791 38.6889 461.07 38.6577C467.095 38.6109 471.223 34.6027 471.181 29.2428V29.1232C471.14 23.8829 466.778 20.2958 460.633 20.3426C457.077 20.3686 454.254 21.4759 451.795 22.8172L448.588 20.7325L449.638 0.176767L473.916 -0.00518799L473.947 4.39293L453.823 4.54369L453.022 18.0448C455.481 16.9426 457.826 16.142 461.324 16.116C469.518 16.0537 475.943 20.8885 476 28.8997V29.0193C476.063 37.2748 469.84 42.9258 461.044 42.9882C455.018 43.035 449.757 40.1809 445.931 36.4119L445.926 36.4222Z" fill="#EE3835"/>
</g>
<defs>
<clipPath id="clip0_3211_4784">
<rect width="476" height="45.2393" fill="white"/>
</clipPath>
</defs>
</svg>
