<svg width="55" height="56" viewBox="0 0 55 56" fill="none" xmlns="http://www.w3.org/2000/svg">
<path d="M54.8099 28.6296C54.8099 26.7863 54.6465 25.0363 54.3665 23.333H28V33.8563H43.0966C42.4199 37.3096 40.4366 40.2262 37.4966 42.2096V49.2095H46.5032C51.7765 44.3329 54.8099 37.1463 54.8099 28.6296Z" fill="#4285F4"/>
<path d="M27.9991 55.9998C35.5591 55.9998 41.8824 53.4798 46.5024 49.2098L37.4958 42.2099C34.9758 43.8899 31.7791 44.9165 27.9991 44.9165C20.6958 44.9165 14.5126 39.9932 12.2959 33.3433H3.00928V40.5532C7.60592 49.6998 17.0559 55.9998 27.9991 55.9998Z" fill="#34A853"/>
<path d="M12.2966 33.3429C11.7133 31.6629 11.4099 29.8662 11.4099 27.9995C11.4099 26.1329 11.7366 24.3362 12.2966 22.6562V15.4463H3.00998C1.09666 19.2263 0 23.4729 0 27.9995C0 32.5262 1.09666 36.7728 3.00998 40.5528L12.2966 33.3429Z" fill="#FBBC05"/>
<path d="M27.9991 11.0833C32.1291 11.0833 35.8158 12.5066 38.7324 15.2833L46.7124 7.3033C41.8824 2.77665 35.5591 0 27.9991 0C17.0559 0 7.60592 6.29997 3.00928 15.4466L12.2959 22.6565C14.5126 16.0066 20.6958 11.0833 27.9991 11.0833Z" fill="#EA4335"/>
</svg>
