<svg width="40" height="40" viewBox="0 0 40 40" fill="none" xmlns="http://www.w3.org/2000/svg">
<path d="M35 24V25C35 27.8125 32.75 30 30 30H7C4.1875 30 2 27.8125 2 25V15C2 12.25 4.1875 10 7 10H30C32.75 10 35 12.25 35 15V16H36C37.0625 16 38 16.9375 38 18V22C38 23.125 37.0625 24 36 24H35ZM3 25C3 27.25 4.75 29 7 29H30C32.1875 29 34 27.25 34 25V15C34 12.8125 32.1875 11 30 11H7C4.75 11 3 12.8125 3 15V25ZM35 17V23H36C36.5 23 37 22.5625 37 22V18C37 17.5 36.5 17 36 17H35Z" fill="#191919"/>
<path d="M22.3822 15.9806C22.8312 16.3562 23.1679 16.7943 23.3475 17.3159C23.5271 17.8584 23.5496 18.38 23.4149 18.9225C23.2802 19.4649 23.0108 19.924 22.6067 20.2995L18.2741 24.4724C18.117 24.6184 17.9374 24.681 17.7578 24.681C17.5558 24.681 17.3762 24.6184 17.2415 24.4724L12.9089 20.3204C12.4824 19.924 12.213 19.4649 12.0783 18.9225C11.9436 18.38 11.9885 17.8584 12.1681 17.3159C12.3477 16.7943 12.662 16.3562 13.1334 15.9806C13.5375 15.6676 13.9864 15.459 14.5028 15.3755C14.9966 15.2921 15.513 15.3338 16.0068 15.4799C16.5007 15.6468 16.9272 15.8972 17.3088 16.2518C17.5619 16.4871 17.9537 16.4871 18.2068 16.2518C18.566 15.8972 19.0149 15.6468 19.5088 15.4799C20.0027 15.3338 20.4965 15.2921 21.0129 15.3755C21.5067 15.459 21.9782 15.6676 22.3822 15.9806Z" fill="#191919"/>
</svg>
