<svg width="36" height="32" viewBox="0 0 36 32" fill="none" xmlns="http://www.w3.org/2000/svg">
<path d="M31.875 14.125C31.4375 11.8125 29.4375 10 26.9375 10C26.1875 10 25.5 10.1875 24.8125 10.5C23.75 9 22 8 19.9375 8C16.625 8 13.9375 10.6875 13.9375 14C13.9375 14.0625 14 14.125 14 14.125C11.6875 14.5625 9.9375 16.625 9.9375 19C9.9375 21.75 12.125 24 14.9375 24H30.9375C33.75 24 36 21.8125 36 19C36 16.5625 34.1875 14.5625 31.875 14.125ZM30.9375 23H14.9375C12.6875 23 10.9375 21.1875 10.9375 19C10.9375 17.0625 12.25 15.4375 14.125 15.0625L15 14.9375V14.125C15 14.0625 15 14 14.9375 13.9375C15 11.25 17.25 9 19.9375 9C21.5 9 23 9.8125 23.9375 11.125L24.4375 11.8125L25.1875 11.4375C25.75 11.1875 26.3125 11 26.9375 11C28.8125 11 30.5 12.4375 30.8125 14.3125L30.9375 15L31.625 15.125C33.5625 15.4375 35 17.125 35 19C35 21.25 33.1875 23 30.9375 23ZM8 18.875C7.9375 18.875 7.875 18.875 7.8125 18.9375L4.5 20L4.4375 20.0625C4.3125 20.0625 4.25 20 4.1875 19.9375C4.1875 19.9375 4.125 19.875 4.125 19.75V19.6875L5.8125 14.6875L1.125 12.375C1 12.3125 1 12.1875 1 12.125C1 12.0625 1 11.9375 1.125 11.875L5.8125 9.5L4.125 4.5625V4.5C4.125 4.375 4.1875 4.3125 4.1875 4.25C4.25 4.25 4.3125 4.1875 4.375 4.1875C4.4375 4.1875 4.4375 4.1875 4.5 4.1875L9.4375 5.875L11.8125 1.1875C11.875 1.0625 12 1 12.0625 1C12.125 1 12.25 1.0625 12.3125 1.1875L14.625 5.875L19.5625 4.1875C19.625 4.1875 19.6875 4.1875 19.6875 4.1875C19.875 4.1875 20 4.375 20 4.5C20 4.5 19.9375 4.5 19.9375 4.5625L19.5 5.875C19.5 5.9375 19.4375 6 19.4375 6C19.4375 6.3125 19.625 6.5625 19.9375 6.5625C20.125 6.5625 20.3125 6.375 20.375 6.1875L20.875 4.875C20.875 4.75 20.9375 4.625 20.9375 4.5C20.9375 3.6875 20.25 3.1875 19.625 3.1875C19.5 3.1875 19.375 3.1875 19.1875 3.25L15.125 4.625L13.1875 0.75C13 0.3125 12.5625 0 12.0625 0C11.5625 0 11.125 0.3125 10.875 0.75L8.9375 4.625L4.8125 3.25C4.6875 3.1875 4.5625 3.1875 4.375 3.1875C3.5625 3.1875 3.0625 3.875 3.0625 4.5C3.0625 4.625 3.125 4.75 3.125 4.875L4.5 9L0.6875 10.9375C0.25 11.1875 0 11.625 0 12.125C0 12.625 0.25 13.0625 0.6875 13.25L4.5625 15.1875L3.1875 19.3125C3.125 19.5 3.125 19.625 3.125 19.75C3.125 20.375 3.625 21.0625 4.4375 21.0625C4.5625 21.0625 4.6875 21 4.8125 21L8.125 19.875C8.3125 19.8125 8.5 19.625 8.5 19.375C8.5 19.125 8.25 18.875 8 18.875ZM8.4375 12C8.4375 10.0625 10 8.5 11.9375 8.5C13.1875 8.5 13.6875 9.0625 14 9.0625C14.3125 9.0625 14.5 8.875 14.5 8.5625C14.5 8 12.9375 7.5 11.9375 7.5C9.4375 7.5 7.4375 9.5 7.4375 12C7.4375 14 8.8125 15.4375 9.25 15.4375C9.5 15.4375 9.75 15.1875 9.75 14.9375C9.8125 14.4375 8.4375 14 8.4375 12ZM14.5 26C14.3125 26 14.125 26.0625 14.0625 26.1875L11.0625 31.1875C11 31.3125 10.9375 31.375 10.9375 31.5C10.9375 31.625 11.0625 31.8125 11.1875 31.875C11.3125 32 11.375 32 11.5 32C11.625 32 11.8125 31.9375 11.875 31.8125L14.875 26.8125C14.9375 26.6875 15 26.625 15 26.5625C15 26.125 14.5625 26 14.5 26ZM20.5 26C20.3125 26 20.125 26.0625 20.0625 26.1875L17.0625 31.1875C17 31.3125 16.9375 31.375 16.9375 31.5C16.9375 31.625 17.0625 31.8125 17.1875 31.875C17.3125 32 17.375 32 17.5 32C17.625 32 17.8125 31.9375 17.875 31.8125L20.875 26.8125C20.9375 26.6875 21 26.625 21 26.5625C21 26.375 20.875 26.1875 20.75 26.125C20.625 26.0625 20.5625 26 20.5 26ZM26.5 26C26.3125 26 26.125 26.0625 26.0625 26.1875L23.0625 31.1875C23 31.3125 22.9375 31.375 22.9375 31.5C22.9375 31.625 23.0625 31.8125 23.1875 31.875C23.3125 32 23.375 32 23.5 32C23.625 32 23.8125 31.9375 23.875 31.8125L26.875 26.8125C26.9375 26.6875 27 26.625 27 26.5625C27 26.375 26.875 26.1875 26.75 26.125C26.625 26.0625 26.5625 26 26.5 26ZM32.5 26C32.3125 26 32.125 26.0625 32.0625 26.1875L29.0625 31.1875C29 31.3125 28.9375 31.375 28.9375 31.5C28.9375 31.625 29.0625 31.8125 29.1875 31.875C29.3125 32 29.375 32 29.5 32C29.625 32 29.8125 31.9375 29.875 31.8125L32.875 26.8125C32.9375 26.6875 33 26.625 33 26.5625C33 26.375 32.875 26.1875 32.75 26.125C32.625 26.0625 32.5625 26 32.5 26Z" fill="#191919"/>
</svg>
