<svg width="30" height="32" viewBox="0 0 30 32" fill="none" xmlns="http://www.w3.org/2000/svg">
<path d="M28.125 5.25L16.125 0.25C15.8125 0.125 15.3125 0.0625 15 0.0625C14.625 0.0625 14.125 0.125 13.8125 0.25L1.8125 5.25C0.6875 5.75 0 6.8125 0 8C0 24.125 11.8125 32 14.9375 32C18.1875 32 30 24 30 8C30 6.8125 29.25 5.75 28.125 5.25ZM14.9375 31C12.25 31 1 23.375 1 8C1 7.1875 1.4375 6.4375 2.1875 6.125L14.125 1.1875C14.375 1.125 14.75 1 15 1C15.1875 1 15.5625 1.125 15.75 1.1875L27.75 6.1875C28.5 6.5 29 7.1875 29 8C29 25.375 15.875 31 14.9375 31ZM21.5 11C21.3125 11 21.1875 11 21.125 11.125L13 19.8125L8.875 15.1875C8.75 15.0625 8.625 15 8.5 15C8.1875 15 8 15.1875 8 15.5C8 15.625 8 15.6875 8.125 15.8125L12.625 20.8125C12.6875 20.9375 12.875 20.9375 13 21C13.125 21 13.25 20.9375 13.3125 20.8125L21.8125 11.8125C21.9375 11.75 22 11.625 22 11.5C22 11.1875 21.6875 11 21.5 11Z" fill="#191919"/>
</svg>
