<svg width="21" height="22" viewBox="0 0 21 22" fill="none" xmlns="http://www.w3.org/2000/svg">
<path d="M20 18.4375C20.5625 19.0625 20.5625 20 20 20.5625C19.375 21.1875 18.4375 21.1875 17.875 20.5625L10.5 13.125L3.0625 20.5625C2.4375 21.1875 1.5 21.1875 0.9375 20.5625C0.3125 20 0.3125 19.0625 0.9375 18.4375L8.375 11L0.9375 3.5625C0.3125 2.9375 0.3125 2 0.9375 1.4375C1.5 0.8125 2.4375 0.8125 3 1.4375L10.5 8.9375L17.9375 1.5C18.5 0.875 19.4375 0.875 20 1.5C20.625 2.0625 20.625 3 20 3.625L12.5625 11L20 18.4375Z" fill="#191919"/>
</svg>
